<svg width="232" height="142" viewBox="0 0 232 142" fill="none" xmlns="http://www.w3.org/2000/svg">
<path d="M230.879 102.049C228.379 98.5488 226.15 101.04 223.879 102.049C219.379 104.049 216.497 101.785 215.379 99.5491C214.379 97.5491 213.879 93.0488 213.879 90.5488L213.379 76.0491V61.0491H222.379C223.546 60.8825 225.879 59.8491 225.879 57.0491C225.879 55.9069 225.574 54.9754 225.133 54.2615C224.115 52.6104 221.905 52.5488 219.965 52.5488H213.879V49.0491C213.879 46.5491 214.879 45.0486 214.879 42.0488C214.879 39.9873 213.879 36.5491 210.379 37.0491C207.579 37.4491 206.379 39.5488 206.379 42.0488L205.879 49.0488C205.379 54.0488 205.379 58.5488 205.379 69.5491C205.379 79.2157 206.179 100.049 209.379 106.049C213.379 113.549 224.379 110.549 226.879 109.549C229.379 108.549 233.62 105.887 230.879 102.049Z" fill="#C91212"/>
<path d="M24.3704 75.5487C21.8789 74.0488 22.2316 70.6689 22.3789 69.0488C23.3791 58.0518 21.8708 57.5491 20.3712 57.0492L20.37 57.0488C18.87 56.5488 12.8699 58.0488 10.8699 62.0488C8.36995 67.0488 3.87036 71.0488 20.37 77.0488C38.2446 83.5488 39.87 90.0488 35.37 99.5488C31.77 107.149 25.2036 110.049 22.3704 110.549C20.7036 111.049 15.9699 111.249 10.3699 108.049C4.76995 104.849 5.36995 101.382 6.36995 100.049C7.20329 98.7155 9.56995 96.8488 12.3699 100.049C15.1699 103.249 20.2036 102.382 22.3704 101.549C37.3708 93.0488 23.3728 87.0488 18.3724 85.0488C13.372 83.0488 6.37749 81.05 1.87891 75.5488C-2.41806 70.2941 1.70369 62.7154 3.87035 59.0487C6.53702 54.7154 13.77 46.2488 23.37 49.0488C35.37 52.5488 29.8704 70.0487 29.3704 72.5487C28.8704 75.0487 26.8745 77.0562 24.3704 75.5487Z" fill="#C91212"/>
<path d="M47.8789 110.549C50.2789 110.549 51.5456 107.549 51.8789 106.049L52.8789 87.5488C52.5878 83.7645 53.7797 76.7493 54.6429 71.6684L54.6496 71.6293C55.1651 68.5949 55.4374 65.0727 57.8454 63.1558C59.237 62.0481 60.2765 63.267 61.0292 64.8546C61.7004 66.2704 62.0083 67.8251 62.2659 69.3706L62.3789 70.0488L64.8789 90.0488C65.2122 93.0488 66.3789 100.049 68.3789 104.049C70.3789 108.049 72.8789 105.715 73.8789 104.049C75.0789 103.249 76.0456 97.0488 76.3789 94.0488C77.3789 86.3822 79.9789 70.3488 82.3789 65.5488C83.3486 63.6094 84.351 62.8291 85.2672 62.7197C87.9945 62.3943 88.8403 66.3556 89.3789 69.0488C89.7789 71.0488 90.5456 84.2155 90.8789 90.5488C91.0456 95.2155 91.3789 104.849 91.3789 106.049C91.3789 107.549 92.3789 110.049 95.3789 110.549C97.7789 110.949 98.7122 108.382 98.8789 107.049V103.549C98.8789 99.5488 98.3789 88.5488 97.8789 79.0488C97.7224 75.2932 97.2037 71.7212 96.5504 68.5844C95.0551 61.4056 91.9596 51.3961 84.6684 52.1765C81.3524 52.5314 78.8001 55.7749 77.3789 58.0488C75.4244 61.176 73.3789 66.2155 72.8789 68.5488L70.3789 81.0488C70.3789 79.3822 70.1789 74.5488 69.3789 68.5488C68.5789 62.5488 67.3789 59.0488 66.8789 58.0488C60.8789 47.5488 52.8789 53.0488 50.3789 58.0488C47.8789 63.0488 45.1914 81.0488 44.8789 83.5488C44.3789 87.5488 44.3789 105.049 44.3789 106.049C44.3789 107.049 44.8789 110.549 47.8789 110.549Z" fill="#C91212"/>
<path d="M165.879 106.549V93.5489C164.379 71.5489 162.379 64.0488 162.379 62.5488C162.379 61.0488 159.879 54.0488 164.879 53.0488C168.879 52.2488 169.879 56.0488 169.879 58.0488L171.379 68.0488C173.379 59.5488 180.379 52.5488 188.379 52.5488C194.779 52.5488 197.379 54.5488 198.379 56.5488C199.179 62.5488 194.879 62.7155 192.879 62.0489C190.879 61.2155 186.079 60.1488 180.879 64.5488C174.379 70.0488 173.879 89.5488 173.879 90.5488V103.549C173.879 105.049 174.879 111.049 170.379 111.049C165.879 111.049 165.879 107.549 165.879 106.549Z" fill="#C91212"/>
<path d="M42.065 132.482V131.357H46.34V132.482H42.065ZM58.3794 124.75V133.465C58.3794 134.295 58.1369 134.965 57.6519 135.475C57.1669 135.985 56.5219 136.24 55.7169 136.24C54.9169 136.24 54.2719 135.985 53.7819 135.475C53.2969 134.965 53.0544 134.295 53.0544 133.465V124.75H54.1794V133.465C54.1794 133.96 54.3194 134.36 54.5994 134.665C54.8794 134.965 55.2519 135.115 55.7169 135.115C56.1819 135.115 56.5544 134.965 56.8344 134.665C57.1144 134.36 57.2544 133.96 57.2544 133.465V124.75H58.3794ZM61.282 136V127.862H62.3695V128.95L62.182 128.732C62.372 128.392 62.6245 128.132 62.9395 127.952C63.2545 127.767 63.622 127.675 64.042 127.675C64.722 127.675 65.2695 127.91 65.6845 128.38C66.0995 128.85 66.307 129.482 66.307 130.277V136H65.2195V130.277C65.2195 129.822 65.0895 129.457 64.8295 129.182C64.5745 128.902 64.2345 128.762 63.8095 128.762C63.3745 128.762 63.0245 128.902 62.7595 129.182C62.4995 129.457 62.3695 129.822 62.3695 130.277V136H61.282ZM71.11 136.18C70.665 136.18 70.2625 136.082 69.9025 135.887C69.5475 135.687 69.265 135.392 69.055 135.002C68.845 134.612 68.74 134.135 68.74 133.57V130.277C68.74 129.717 68.845 129.245 69.055 128.86C69.265 128.47 69.5475 128.175 69.9025 127.975C70.2625 127.775 70.665 127.675 71.11 127.675C71.54 127.675 71.9075 127.765 72.2125 127.945C72.5225 128.12 72.7675 128.362 72.9475 128.672L72.7675 128.92V124.75H73.855V136H72.7675V134.942L72.9475 135.182C72.7675 135.497 72.5225 135.742 72.2125 135.917C71.9075 136.092 71.54 136.18 71.11 136.18ZM71.3125 135.092C71.7725 135.092 72.13 134.955 72.385 134.68C72.64 134.4 72.7675 134.032 72.7675 133.577V130.277C72.7675 129.822 72.6375 129.457 72.3775 129.182C72.1225 128.902 71.765 128.762 71.305 128.762C70.845 128.762 70.4825 128.902 70.2175 129.182C69.9575 129.457 69.8275 129.822 69.8275 130.277V133.57C69.8275 134.025 69.9575 134.392 70.2175 134.672C70.4825 134.952 70.8475 135.092 71.3125 135.092ZM78.9284 136.18C78.4184 136.18 77.9709 136.07 77.5859 135.85C77.2009 135.63 76.8984 135.322 76.6784 134.927C76.4584 134.527 76.3484 134.062 76.3484 133.532V130.315C76.3484 129.795 76.4584 129.337 76.6784 128.942C76.8984 128.542 77.2009 128.232 77.5859 128.012C77.9709 127.787 78.4184 127.675 78.9284 127.675C79.6934 127.675 80.3109 127.917 80.7809 128.402C81.2509 128.887 81.4859 129.525 81.4859 130.315V132.092H77.2184V131.042H80.3984V130.277C80.3984 129.822 80.2659 129.457 80.0009 129.182C79.7409 128.902 79.3834 128.762 78.9284 128.762C78.4734 128.762 78.1109 128.902 77.8409 129.182C77.5709 129.457 77.4359 129.822 77.4359 130.277V133.57C77.4359 134.025 77.5709 134.392 77.8409 134.672C78.1109 134.952 78.4734 135.092 78.9284 135.092C79.3834 135.092 79.7409 134.952 80.0009 134.672C80.2659 134.392 80.3984 134.025 80.3984 133.57V133.382H81.4859V133.532C81.4859 134.322 81.2509 134.962 80.7809 135.452C80.3109 135.937 79.6934 136.18 78.9284 136.18ZM83.9267 136V127.862H85.0142V129.032L84.8267 128.807C85.0167 128.472 85.2692 128.215 85.5842 128.035C85.8992 127.855 86.2642 127.765 86.6792 127.765H87.0317V128.852H86.4542C86.0192 128.852 85.6692 128.987 85.4042 129.257C85.1442 129.527 85.0142 129.89 85.0142 130.345V136H83.9267ZM90.9351 136.18C90.1601 136.18 89.5376 135.957 89.0676 135.512C88.6026 135.062 88.3701 134.47 88.3701 133.735V133.472H89.4576V133.78C89.4576 134.175 89.5901 134.492 89.8551 134.732C90.1251 134.972 90.4801 135.092 90.9201 135.092C91.3451 135.092 91.6826 134.972 91.9326 134.732C92.1826 134.492 92.3076 134.145 92.3076 133.69C92.3076 133.395 92.2501 133.17 92.1351 133.015C92.0251 132.855 91.8651 132.735 91.6551 132.655C91.4451 132.575 91.1901 132.505 90.8901 132.445C90.3951 132.34 89.9576 132.225 89.5776 132.1C89.1976 131.97 88.9001 131.765 88.6851 131.485C88.4751 131.205 88.3701 130.787 88.3701 130.232C88.3701 129.402 88.5976 128.77 89.0526 128.335C89.5126 127.895 90.1151 127.675 90.8601 127.675C91.6351 127.675 92.2501 127.9 92.7051 128.35C93.1651 128.795 93.3951 129.382 93.3951 130.112V130.367H92.3076V130.075C92.3076 129.675 92.1776 129.357 91.9176 129.122C91.6626 128.882 91.3151 128.762 90.8751 128.762C90.4451 128.762 90.1001 128.885 89.8401 129.13C89.5851 129.37 89.4576 129.717 89.4576 130.172C89.4576 130.467 89.5126 130.695 89.6226 130.855C89.7376 131.01 89.9026 131.125 90.1176 131.2C90.3326 131.275 90.5901 131.345 90.8901 131.41C91.3801 131.51 91.8126 131.625 92.1876 131.755C92.5626 131.885 92.8576 132.092 93.0726 132.377C93.2876 132.662 93.3951 133.085 93.3951 133.645C93.3951 134.46 93.1701 135.087 92.7201 135.527C92.2751 135.962 91.6801 136.18 90.9351 136.18ZM98.7847 136.09C98.0097 136.09 97.3872 135.845 96.9172 135.355C96.4522 134.86 96.2197 134.197 96.2197 133.367V128.875H94.7572V127.847H96.2197V125.8H97.3072V127.847H99.3322V128.875H97.3072V133.367C97.3072 133.862 97.4422 134.26 97.7122 134.56C97.9822 134.855 98.3397 135.002 98.7847 135.002H99.3322V136.09H98.7847ZM103.173 136.18C102.423 136.18 101.843 135.972 101.433 135.557C101.023 135.142 100.818 134.617 100.818 133.982C100.818 133.587 100.89 133.26 101.035 133C101.18 132.735 101.365 132.52 101.59 132.355C101.82 132.19 102.063 132.057 102.318 131.957C102.623 131.832 102.933 131.735 103.248 131.665C103.568 131.59 103.863 131.512 104.133 131.432C104.403 131.347 104.62 131.232 104.785 131.087C104.95 130.942 105.033 130.737 105.033 130.472V130.277C105.033 129.822 104.895 129.457 104.62 129.182C104.35 128.902 103.99 128.762 103.54 128.762C103.085 128.762 102.725 128.902 102.46 129.182C102.2 129.457 102.07 129.822 102.07 130.277V130.502H100.983V130.315C100.983 129.525 101.218 128.887 101.688 128.402C102.158 127.917 102.775 127.675 103.54 127.675C104.045 127.675 104.49 127.787 104.875 128.012C105.265 128.232 105.57 128.54 105.79 128.935C106.01 129.33 106.12 129.79 106.12 130.315V136H105.033V134.875L105.213 135.115C105.023 135.455 104.755 135.717 104.41 135.902C104.065 136.088 103.653 136.18 103.173 136.18ZM103.398 135.145C103.908 135.145 104.308 135.002 104.598 134.717C104.888 134.427 105.033 134.015 105.033 133.48V132.04C104.728 132.23 104.388 132.36 104.013 132.43C103.638 132.495 103.28 132.585 102.94 132.7C102.64 132.8 102.393 132.942 102.198 133.127C102.003 133.307 101.905 133.565 101.905 133.9C101.905 134.265 102.035 134.565 102.295 134.8C102.555 135.03 102.923 135.145 103.398 135.145ZM108.724 136V127.862H109.812V128.95L109.624 128.732C109.814 128.392 110.067 128.132 110.382 127.952C110.697 127.767 111.064 127.675 111.484 127.675C112.164 127.675 112.712 127.91 113.127 128.38C113.542 128.85 113.749 129.482 113.749 130.277V136H112.662V130.277C112.662 129.822 112.532 129.457 112.272 129.182C112.017 128.902 111.677 128.762 111.252 128.762C110.817 128.762 110.467 128.902 110.202 129.182C109.942 129.457 109.812 129.822 109.812 130.277V136H108.724ZM118.552 136.18C118.107 136.18 117.705 136.082 117.345 135.887C116.99 135.687 116.707 135.392 116.497 135.002C116.287 134.612 116.182 134.135 116.182 133.57V130.277C116.182 129.717 116.287 129.245 116.497 128.86C116.707 128.47 116.99 128.175 117.345 127.975C117.705 127.775 118.107 127.675 118.552 127.675C118.982 127.675 119.35 127.765 119.655 127.945C119.965 128.12 120.21 128.362 120.39 128.672L120.21 128.92V124.75H121.297V136H120.21V134.942L120.39 135.182C120.21 135.497 119.965 135.742 119.655 135.917C119.35 136.092 118.982 136.18 118.552 136.18ZM118.755 135.092C119.215 135.092 119.572 134.955 119.827 134.68C120.082 134.4 120.21 134.032 120.21 133.577V130.277C120.21 129.822 120.08 129.457 119.82 129.182C119.565 128.902 119.207 128.762 118.747 128.762C118.287 128.762 117.925 128.902 117.66 129.182C117.4 129.457 117.27 129.822 117.27 130.277V133.57C117.27 134.025 117.4 134.392 117.66 134.672C117.925 134.952 118.29 135.092 118.755 135.092ZM130.891 136.09C130.116 136.09 129.494 135.845 129.024 135.355C128.559 134.86 128.326 134.197 128.326 133.367V128.875H126.864V127.847H128.326V125.8H129.414V127.847H131.439V128.875H129.414V133.367C129.414 133.862 129.549 134.26 129.819 134.56C130.089 134.855 130.446 135.002 130.891 135.002H131.439V136.09H130.891ZM133.419 136V124.75H134.507V128.927L134.327 128.695C134.512 128.37 134.759 128.117 135.069 127.937C135.384 127.757 135.754 127.667 136.179 127.667C136.609 127.667 136.994 127.765 137.334 127.96C137.679 128.15 137.949 128.43 138.144 128.8C138.344 129.17 138.444 129.622 138.444 130.157V136H137.357V130.27C137.357 129.81 137.227 129.442 136.967 129.167C136.712 128.892 136.372 128.755 135.947 128.755C135.512 128.755 135.162 128.892 134.897 129.167C134.637 129.442 134.507 129.81 134.507 130.27V136H133.419ZM143.42 136.18C142.91 136.18 142.462 136.07 142.077 135.85C141.692 135.63 141.39 135.322 141.17 134.927C140.95 134.527 140.84 134.062 140.84 133.532V130.315C140.84 129.795 140.95 129.337 141.17 128.942C141.39 128.542 141.692 128.232 142.077 128.012C142.462 127.787 142.91 127.675 143.42 127.675C144.185 127.675 144.802 127.917 145.272 128.402C145.742 128.887 145.977 129.525 145.977 130.315V132.092H141.71V131.042H144.89V130.277C144.89 129.822 144.757 129.457 144.492 129.182C144.232 128.902 143.875 128.762 143.42 128.762C142.965 128.762 142.602 128.902 142.332 129.182C142.062 129.457 141.927 129.822 141.927 130.277V133.57C141.927 134.025 142.062 134.392 142.332 134.672C142.602 134.952 142.965 135.092 143.42 135.092C143.875 135.092 144.232 134.952 144.492 134.672C144.757 134.392 144.89 134.025 144.89 133.57V133.382H145.977V133.532C145.977 134.322 145.742 134.962 145.272 135.452C144.802 135.937 144.185 136.18 143.42 136.18ZM152.871 136L151.573 127.862H152.706L153.613 134.807L153.448 134.792L154.783 127.862H155.811L157.146 134.792L156.988 134.807L157.881 127.862H159.021L157.723 136H156.493L155.203 129.73H155.413L154.108 136H152.871ZM163.34 136.18C162.83 136.18 162.382 136.07 161.997 135.85C161.612 135.63 161.31 135.322 161.09 134.927C160.87 134.527 160.76 134.062 160.76 133.532V130.315C160.76 129.795 160.87 129.337 161.09 128.942C161.31 128.542 161.612 128.232 161.997 128.012C162.382 127.787 162.83 127.675 163.34 127.675C164.105 127.675 164.722 127.917 165.192 128.402C165.662 128.887 165.897 129.525 165.897 130.315V133.532C165.897 134.322 165.662 134.962 165.192 135.452C164.722 135.937 164.105 136.18 163.34 136.18ZM163.34 135.092C163.795 135.092 164.152 134.952 164.412 134.672C164.677 134.392 164.81 134.025 164.81 133.57V130.277C164.81 129.822 164.677 129.457 164.412 129.182C164.152 128.902 163.795 128.762 163.34 128.762C162.885 128.762 162.522 128.902 162.252 129.182C161.982 129.457 161.847 129.822 161.847 130.277V133.57C161.847 134.025 161.982 134.392 162.252 134.672C162.522 134.952 162.885 135.092 163.34 135.092ZM168.397 136V127.862H169.484V129.032L169.297 128.807C169.487 128.472 169.739 128.215 170.054 128.035C170.369 127.855 170.734 127.765 171.149 127.765H171.502V128.852H170.924C170.489 128.852 170.139 128.987 169.874 129.257C169.614 129.527 169.484 129.89 169.484 130.345V136H168.397ZM173.23 136V124.75H174.318V136H173.23ZM179.22 136.18C178.775 136.18 178.373 136.082 178.013 135.887C177.658 135.687 177.375 135.392 177.165 135.002C176.955 134.612 176.85 134.135 176.85 133.57V130.277C176.85 129.717 176.955 129.245 177.165 128.86C177.375 128.47 177.658 128.175 178.013 127.975C178.373 127.775 178.775 127.675 179.22 127.675C179.65 127.675 180.018 127.765 180.323 127.945C180.633 128.12 180.878 128.362 181.058 128.672L180.878 128.92V124.75H181.965V136H180.878V134.942L181.058 135.182C180.878 135.497 180.633 135.742 180.323 135.917C180.018 136.092 179.65 136.18 179.22 136.18ZM179.423 135.092C179.883 135.092 180.24 134.955 180.495 134.68C180.75 134.4 180.878 134.032 180.878 133.577V130.277C180.878 129.822 180.748 129.457 180.488 129.182C180.233 128.902 179.875 128.762 179.415 128.762C178.955 128.762 178.593 128.902 178.328 129.182C178.068 129.457 177.938 129.822 177.938 130.277V133.57C177.938 134.025 178.068 134.392 178.328 134.672C178.593 134.952 178.958 135.092 179.423 135.092ZM188.507 132.482V131.357H192.782V132.482H188.507Z" fill="#C91212"/>
<path d="M4.483 24L8.991 9.303H12.5675L17.0755 24H14.741L10.923 10.844H10.6355L6.8175 24H4.483ZM7.427 19.8945V17.9855H14.1085V19.8945H7.427ZM24.1394 24.2645C22.468 24.2645 21.226 23.8237 20.4134 22.942C19.6084 22.0527 19.2059 20.7992 19.2059 19.1815V17.56C19.2059 15.9347 19.6122 14.6812 20.4249 13.7995C21.2375 12.9178 22.4757 12.477 24.1394 12.477C24.5994 12.477 25.021 12.5192 25.4044 12.6035C25.7954 12.6878 26.148 12.799 26.4624 12.937C26.7767 13.0673 27.045 13.2053 27.2674 13.351L27.4629 15.283C27.0949 15.0223 26.6694 14.8038 26.1864 14.6275C25.7034 14.4435 25.1399 14.3515 24.4959 14.3515C23.4685 14.3515 22.7057 14.6313 22.2074 15.191C21.7167 15.743 21.4714 16.548 21.4714 17.606V19.124C21.4714 20.159 21.7167 20.9563 22.2074 21.516C22.7057 22.0757 23.4685 22.3555 24.4959 22.3555C25.1475 22.3555 25.7225 22.2673 26.2209 22.091C26.7192 21.907 27.1677 21.6847 27.5664 21.424L27.3709 23.379C27.0182 23.6013 26.5659 23.8045 26.0139 23.9885C25.4695 24.1725 24.8447 24.2645 24.1394 24.2645ZM37.2154 24L37.3074 21.332L37.2269 20.987V17.445L37.2384 16.8815C37.2384 16.0152 37.0161 15.3788 36.5714 14.9725C36.1344 14.5662 35.4291 14.363 34.4554 14.363C33.6657 14.363 32.9336 14.4742 32.2589 14.6965C31.5842 14.9188 30.9747 15.1757 30.4304 15.467L30.6374 13.581C30.9441 13.4047 31.3044 13.2322 31.7184 13.0635C32.1324 12.8948 32.6001 12.7568 33.1214 12.6495C33.6427 12.5422 34.2139 12.4885 34.8349 12.4885C35.6859 12.4885 36.4066 12.592 36.9969 12.799C37.5872 12.9983 38.0626 13.2897 38.4229 13.673C38.7832 14.0563 39.0439 14.5163 39.2049 15.053C39.3736 15.5897 39.4579 16.1877 39.4579 16.847V24H37.2154ZM33.4089 24.253C32.2972 24.253 31.4462 23.9808 30.8559 23.4365C30.2656 22.8845 29.9704 22.1025 29.9704 21.0905V20.7455C29.9704 19.6722 30.3001 18.8787 30.9594 18.365C31.6264 17.8437 32.6729 17.4833 34.0989 17.284L37.4799 16.801L37.6064 18.434L34.3634 18.894C33.5891 19.0013 33.0371 19.1892 32.7074 19.4575C32.3777 19.7182 32.2129 20.1053 32.2129 20.619V20.78C32.2129 21.2937 32.3701 21.6885 32.6844 21.9645C33.0064 22.2405 33.4932 22.3785 34.1449 22.3785C34.7429 22.3785 35.2566 22.2788 35.6859 22.0795C36.1152 21.8802 36.4641 21.6157 36.7324 21.286C37.0007 20.9487 37.1847 20.5768 37.2844 20.1705L37.5949 21.677H37.1809C37.0582 22.137 36.8551 22.5625 36.5714 22.9535C36.2877 23.3445 35.8891 23.6588 35.3754 23.8965C34.8694 24.1342 34.2139 24.253 33.4089 24.253ZM46.7369 24.253C45.3952 24.253 44.3717 23.8313 43.6664 22.988C42.9687 22.1447 42.6199 20.9142 42.6199 19.2965V17.514C42.6199 15.881 42.9725 14.639 43.6779 13.788C44.3909 12.9293 45.4412 12.5 46.8289 12.5C47.4959 12.5 48.067 12.6073 48.5424 12.822C49.0254 13.029 49.4164 13.3242 49.7154 13.7075C50.022 14.0908 50.2405 14.5432 50.3709 15.0645H51.1184L50.4859 17.146C50.4629 16.5327 50.3287 16.019 50.0834 15.605C49.838 15.1833 49.5007 14.8652 49.0714 14.6505C48.642 14.4358 48.1399 14.3285 47.5649 14.3285C46.6985 14.3285 46.0354 14.5777 45.5754 15.076C45.1154 15.5743 44.8854 16.3142 44.8854 17.2955V19.446C44.8854 20.4043 45.1115 21.1327 45.5639 21.631C46.0239 22.1293 46.6909 22.3785 47.5649 22.3785C48.0939 22.3785 48.5577 22.2788 48.9564 22.0795C49.3627 21.8802 49.7 21.608 49.9684 21.263C50.2367 20.918 50.4207 20.5308 50.5204 20.1015L51.0494 21.6885H50.3939C50.2712 22.1562 50.0642 22.5855 49.7729 22.9765C49.4892 23.3675 49.102 23.678 48.6114 23.908C48.1207 24.138 47.4959 24.253 46.7369 24.253ZM50.4284 24L50.5204 21.3665L50.4859 20.6535V15.9845L50.4974 15.5475L50.4399 12.362V8.774H52.6824V24H50.4284ZM61.3872 24.2645C59.5932 24.2645 58.2477 23.839 57.3507 22.988C56.4613 22.1293 56.0167 20.895 56.0167 19.285V17.445C56.0167 15.858 56.4307 14.6313 57.2587 13.765C58.0943 12.891 59.3095 12.454 60.9042 12.454C61.9852 12.454 62.886 12.6533 63.6067 13.052C64.3273 13.443 64.8678 13.9988 65.2282 14.7195C65.5885 15.4402 65.7687 16.295 65.7687 17.284V17.7095C65.7687 17.9702 65.7572 18.2347 65.7342 18.503C65.7112 18.7713 65.6805 19.0282 65.6422 19.2735H63.5722C63.5875 18.8748 63.5952 18.4992 63.5952 18.1465C63.6028 17.7938 63.6067 17.4718 63.6067 17.1805C63.6067 16.5595 63.507 16.0343 63.3077 15.605C63.1083 15.1757 62.8093 14.8498 62.4107 14.6275C62.012 14.3975 61.5098 14.2825 60.9042 14.2825C60.0072 14.2825 59.3402 14.5393 58.9032 15.053C58.4662 15.559 58.2477 16.2835 58.2477 17.2265V18.2845L58.2592 18.549V19.5495C58.2592 19.9712 58.3205 20.3545 58.4432 20.6995C58.5735 21.0445 58.7767 21.3435 59.0527 21.5965C59.3363 21.8418 59.7005 22.0335 60.1452 22.1715C60.5898 22.3018 61.1303 22.367 61.7667 22.367C62.4873 22.367 63.162 22.275 63.7907 22.091C64.427 21.907 65.025 21.6617 65.5847 21.355L65.3777 23.2755C64.8717 23.5745 64.2813 23.816 63.6067 24C62.9397 24.1763 62.1998 24.2645 61.3872 24.2645ZM57.2127 19.2735V17.583H65.1822V19.2735H57.2127ZM82.9809 24V16.9965C82.9809 16.4675 82.9119 16.0075 82.7739 15.6165C82.6436 15.2178 82.4213 14.9112 82.1069 14.6965C81.8003 14.4818 81.3824 14.3745 80.8534 14.3745C80.3474 14.3745 79.9104 14.4742 79.5424 14.6735C79.1744 14.8728 78.8754 15.1412 78.6454 15.4785C78.4231 15.8158 78.2621 16.1992 78.1624 16.6285L77.8634 15.0645H78.1279C78.2659 14.6122 78.4768 14.1905 78.7604 13.7995C79.0441 13.4085 79.4274 13.0942 79.9104 12.8565C80.3934 12.6188 81.0029 12.5 81.7389 12.5C82.5669 12.5 83.2378 12.6648 83.7514 12.9945C84.2651 13.3165 84.6408 13.7957 84.8784 14.432C85.1161 15.0607 85.2349 15.8312 85.2349 16.7435V24H82.9809ZM69.0084 24V12.753H71.2624L71.1704 15.3865L71.2624 15.5245V24H69.0084ZM76.0004 24V16.9965C76.0004 16.4675 75.9314 16.0075 75.7934 15.6165C75.6631 15.2178 75.4408 14.9112 75.1264 14.6965C74.8198 14.4818 74.4019 14.3745 73.8729 14.3745C73.3669 14.3745 72.9299 14.4742 72.5619 14.6735C72.1939 14.8728 71.8949 15.1412 71.6649 15.4785C71.4426 15.8158 71.2816 16.1992 71.1819 16.6285L70.8139 15.0645H71.2969C71.4196 14.5892 71.6189 14.1598 71.8949 13.7765C72.1786 13.3855 72.5543 13.075 73.0219 12.845C73.4896 12.615 74.0646 12.5 74.7469 12.5C75.7896 12.5 76.5793 12.7683 77.1159 13.305C77.6526 13.8417 77.9899 14.6237 78.1279 15.651C78.1663 15.7967 78.1931 15.9615 78.2084 16.1455C78.2314 16.3295 78.2429 16.5097 78.2429 16.686V24H76.0004ZM88.8975 24V12.753H91.1515V24H88.8975ZM90.0245 11.097C89.5798 11.097 89.2463 10.9858 89.024 10.7635C88.8093 10.5335 88.702 10.2192 88.702 9.8205V9.7745C88.702 9.37583 88.8093 9.06533 89.024 8.843C89.2463 8.613 89.5798 8.498 90.0245 8.498C90.4692 8.498 90.7988 8.613 91.0135 8.843C91.2358 9.06533 91.347 9.37583 91.347 9.7745V9.8205C91.347 10.2268 91.2358 10.5412 91.0135 10.7635C90.7988 10.9858 90.4692 11.097 90.0245 11.097ZM101.562 24L101.654 21.332L101.573 20.987V17.445L101.585 16.8815C101.585 16.0152 101.362 15.3788 100.918 14.9725C100.481 14.5662 99.7752 14.363 98.8015 14.363C98.0118 14.363 97.2797 14.4742 96.605 14.6965C95.9303 14.9188 95.3208 15.1757 94.7765 15.467L94.9835 13.581C95.2902 13.4047 95.6505 13.2322 96.0645 13.0635C96.4785 12.8948 96.9462 12.7568 97.4675 12.6495C97.9888 12.5422 98.56 12.4885 99.181 12.4885C100.032 12.4885 100.753 12.592 101.343 12.799C101.933 12.9983 102.409 13.2897 102.769 13.673C103.129 14.0563 103.39 14.5163 103.551 15.053C103.72 15.5897 103.804 16.1877 103.804 16.847V24H101.562ZM97.755 24.253C96.6433 24.253 95.7923 23.9808 95.202 23.4365C94.6117 22.8845 94.3165 22.1025 94.3165 21.0905V20.7455C94.3165 19.6722 94.6462 18.8787 95.3055 18.365C95.9725 17.8437 97.019 17.4833 98.445 17.284L101.826 16.801L101.953 18.434L98.7095 18.894C97.9352 19.0013 97.3832 19.1892 97.0535 19.4575C96.7238 19.7182 96.559 20.1053 96.559 20.619V20.78C96.559 21.2937 96.7162 21.6885 97.0305 21.9645C97.3525 22.2405 97.8393 22.3785 98.491 22.3785C99.089 22.3785 99.6027 22.2788 100.032 22.0795C100.461 21.8802 100.81 21.6157 101.079 21.286C101.347 20.9487 101.531 20.5768 101.631 20.1705L101.941 21.677H101.527C101.404 22.137 101.201 22.5625 100.918 22.9535C100.634 23.3445 100.235 23.6588 99.7215 23.8965C99.2155 24.1342 98.56 24.253 97.755 24.253ZM116.787 24.253C115.445 24.253 114.422 23.8313 113.717 22.988C113.019 22.1447 112.67 20.9142 112.67 19.2965V17.514C112.67 15.881 113.023 14.639 113.728 13.788C114.441 12.9293 115.491 12.5 116.879 12.5C117.546 12.5 118.117 12.6073 118.593 12.822C119.076 13.029 119.467 13.3242 119.766 13.7075C120.072 14.0908 120.291 14.5432 120.421 15.0645H121.169L120.536 17.146C120.513 16.5327 120.379 16.019 120.134 15.605C119.888 15.1833 119.551 14.8652 119.122 14.6505C118.692 14.4358 118.19 14.3285 117.615 14.3285C116.749 14.3285 116.086 14.5777 115.626 15.076C115.166 15.5743 114.936 16.3142 114.936 17.2955V19.446C114.936 20.4043 115.162 21.1327 115.614 21.631C116.074 22.1293 116.741 22.3785 117.615 22.3785C118.144 22.3785 118.608 22.2788 119.007 22.0795C119.413 21.8802 119.75 21.608 120.019 21.263C120.287 20.918 120.471 20.5308 120.571 20.1015L121.1 21.6885H120.444C120.321 22.1562 120.114 22.5855 119.823 22.9765C119.539 23.3675 119.152 23.678 118.662 23.908C118.171 24.138 117.546 24.253 116.787 24.253ZM120.479 24L120.571 21.3665L120.536 20.6535V15.9845L120.548 15.5475L120.49 12.362V8.774H122.733V24H120.479ZM131.437 24.2645C129.643 24.2645 128.298 23.839 127.401 22.988C126.512 22.1293 126.067 20.895 126.067 19.285V17.445C126.067 15.858 126.481 14.6313 127.309 13.765C128.145 12.891 129.36 12.454 130.954 12.454C132.035 12.454 132.936 12.6533 133.657 13.052C134.378 13.443 134.918 13.9988 135.278 14.7195C135.639 15.4402 135.819 16.295 135.819 17.284V17.7095C135.819 17.9702 135.807 18.2347 135.784 18.503C135.761 18.7713 135.731 19.0282 135.692 19.2735H133.622C133.638 18.8748 133.645 18.4992 133.645 18.1465C133.653 17.7938 133.657 17.4718 133.657 17.1805C133.657 16.5595 133.557 16.0343 133.358 15.605C133.159 15.1757 132.86 14.8498 132.461 14.6275C132.062 14.3975 131.56 14.2825 130.954 14.2825C130.057 14.2825 129.39 14.5393 128.953 15.053C128.516 15.559 128.298 16.2835 128.298 17.2265V18.2845L128.309 18.549V19.5495C128.309 19.9712 128.371 20.3545 128.493 20.6995C128.624 21.0445 128.827 21.3435 129.103 21.5965C129.387 21.8418 129.751 22.0335 130.195 22.1715C130.64 22.3018 131.181 22.367 131.817 22.367C132.538 22.367 133.212 22.275 133.841 22.091C134.477 21.907 135.075 21.6617 135.635 21.355L135.428 23.2755C134.922 23.5745 134.332 23.816 133.657 24C132.99 24.1763 132.25 24.2645 131.437 24.2645ZM127.263 19.2735V17.583H135.232V19.2735H127.263ZM147.293 24H144.981V9.303H147.293V24ZM154.945 24.253C153.603 24.253 152.58 23.8313 151.874 22.988C151.177 22.1447 150.828 20.9142 150.828 19.2965V17.514C150.828 15.881 151.18 14.639 151.886 13.788C152.599 12.9293 153.649 12.5 155.037 12.5C155.704 12.5 156.275 12.6073 156.75 12.822C157.233 13.029 157.624 13.3242 157.923 13.7075C158.23 14.0908 158.448 14.5432 158.579 15.0645H159.326L158.694 17.146C158.671 16.5327 158.537 16.019 158.291 15.605C158.046 15.1833 157.709 14.8652 157.279 14.6505C156.85 14.4358 156.348 14.3285 155.773 14.3285C154.906 14.3285 154.243 14.5777 153.783 15.076C153.323 15.5743 153.093 16.3142 153.093 17.2955V19.446C153.093 20.4043 153.319 21.1327 153.772 21.631C154.232 22.1293 154.899 22.3785 155.773 22.3785C156.302 22.3785 156.766 22.2788 157.164 22.0795C157.571 21.8802 157.908 21.608 158.176 21.263C158.445 20.918 158.629 20.5308 158.728 20.1015L159.257 21.6885H158.602C158.479 22.1562 158.272 22.5855 157.981 22.9765C157.697 23.3675 157.31 23.678 156.819 23.908C156.329 24.138 155.704 24.253 154.945 24.253ZM158.636 24L158.728 21.3665L158.694 20.6535V15.9845L158.705 15.5475L158.648 12.362V8.774H160.89V24H158.636ZM164.696 24V12.753H166.95V24H164.696ZM165.823 11.097C165.378 11.097 165.045 10.9858 164.822 10.7635C164.608 10.5335 164.5 10.2192 164.5 9.8205V9.7745C164.5 9.37583 164.608 9.06533 164.822 8.843C165.045 8.613 165.378 8.498 165.823 8.498C166.268 8.498 166.597 8.613 166.812 8.843C167.034 9.06533 167.145 9.37583 167.145 9.7745V9.8205C167.145 10.2268 167.034 10.5412 166.812 10.7635C166.597 10.9858 166.268 11.097 165.823 11.097ZM175.37 24.2875C173.714 24.2875 172.457 23.8467 171.598 22.965C170.74 22.0833 170.31 20.8145 170.31 19.1585V17.56C170.31 15.9117 170.74 14.6505 171.598 13.7765C172.457 12.8948 173.714 12.454 175.37 12.454C177.026 12.454 178.28 12.8948 179.131 13.7765C179.99 14.6505 180.419 15.9117 180.419 17.56V19.1585C180.419 20.8145 179.99 22.0833 179.131 22.965C178.28 23.8467 177.026 24.2875 175.37 24.2875ZM175.37 22.459C176.283 22.459 176.977 22.1868 177.452 21.6425C177.927 21.0982 178.165 20.3162 178.165 19.2965V17.422C178.165 16.41 177.927 15.6357 177.452 15.099C176.977 14.5547 176.283 14.2825 175.37 14.2825C174.458 14.2825 173.764 14.5547 173.289 15.099C172.814 15.6357 172.576 16.41 172.576 17.422V19.2965C172.576 20.3162 172.814 21.0982 173.289 21.6425C173.764 22.1868 174.458 22.459 175.37 22.459ZM197.724 24V16.9965C197.724 16.4675 197.655 16.0075 197.517 15.6165C197.387 15.2178 197.164 14.9112 196.85 14.6965C196.543 14.4818 196.125 14.3745 195.596 14.3745C195.09 14.3745 194.653 14.4742 194.285 14.6735C193.917 14.8728 193.618 15.1412 193.388 15.4785C193.166 15.8158 193.005 16.1992 192.905 16.6285L192.606 15.0645H192.871C193.009 14.6122 193.22 14.1905 193.503 13.7995C193.787 13.4085 194.17 13.0942 194.653 12.8565C195.136 12.6188 195.746 12.5 196.482 12.5C197.31 12.5 197.981 12.6648 198.494 12.9945C199.008 13.3165 199.384 13.7957 199.621 14.432C199.859 15.0607 199.978 15.8312 199.978 16.7435V24H197.724ZM183.751 24V12.753H186.005L185.913 15.3865L186.005 15.5245V24H183.751ZM190.743 24V16.9965C190.743 16.4675 190.674 16.0075 190.536 15.6165C190.406 15.2178 190.184 14.9112 189.869 14.6965C189.563 14.4818 189.145 14.3745 188.616 14.3745C188.11 14.3745 187.673 14.4742 187.305 14.6735C186.937 14.8728 186.638 15.1412 186.408 15.4785C186.186 15.8158 186.025 16.1992 185.925 16.6285L185.557 15.0645H186.04C186.163 14.5892 186.362 14.1598 186.638 13.7765C186.922 13.3855 187.297 13.075 187.765 12.845C188.233 12.615 188.808 12.5 189.49 12.5C190.533 12.5 191.322 12.7683 191.859 13.305C192.396 13.8417 192.733 14.6237 192.871 15.651C192.909 15.7967 192.936 15.9615 192.951 16.1455C192.974 16.3295 192.986 16.5097 192.986 16.686V24H190.743ZM210.219 24L210.311 21.332L210.23 20.987V17.445L210.242 16.8815C210.242 16.0152 210.019 15.3788 209.575 14.9725C209.138 14.5662 208.432 14.363 207.459 14.363C206.669 14.363 205.937 14.4742 205.262 14.6965C204.587 14.9188 203.978 15.1757 203.434 15.467L203.641 13.581C203.947 13.4047 204.308 13.2322 204.722 13.0635C205.136 12.8948 205.603 12.7568 206.125 12.6495C206.646 12.5422 207.217 12.4885 207.838 12.4885C208.689 12.4885 209.41 12.592 210 12.799C210.59 12.9983 211.066 13.2897 211.426 13.673C211.786 14.0563 212.047 14.5163 212.208 15.053C212.377 15.5897 212.461 16.1877 212.461 16.847V24H210.219ZM206.412 24.253C205.3 24.253 204.449 23.9808 203.859 23.4365C203.269 22.8845 202.974 22.1025 202.974 21.0905V20.7455C202.974 19.6722 203.303 18.8787 203.963 18.365C204.63 17.8437 205.676 17.4833 207.102 17.284L210.483 16.801L210.61 18.434L207.367 18.894C206.592 19.0013 206.04 19.1892 205.711 19.4575C205.381 19.7182 205.216 20.1053 205.216 20.619V20.78C205.216 21.2937 205.373 21.6885 205.688 21.9645C206.01 22.2405 206.496 22.3785 207.148 22.3785C207.746 22.3785 208.26 22.2788 208.689 22.0795C209.118 21.8802 209.467 21.6157 209.736 21.286C210.004 20.9487 210.188 20.5768 210.288 20.1705L210.598 21.677H210.184C210.061 22.137 209.858 22.5625 209.575 22.9535C209.291 23.3445 208.892 23.6588 208.379 23.8965C207.873 24.1342 207.217 24.253 206.412 24.253ZM219.66 24.2645C218.755 24.2645 217.962 24.1725 217.28 23.9885C216.597 23.7968 216.026 23.5898 215.566 23.3675L215.359 21.309C215.926 21.5927 216.551 21.8418 217.234 22.0565C217.916 22.2635 218.683 22.367 219.534 22.367C220.354 22.367 220.96 22.2482 221.351 22.0105C221.749 21.7652 221.949 21.4048 221.949 20.9295V20.8375C221.949 20.5308 221.868 20.2778 221.707 20.0785C221.546 19.8715 221.259 19.6875 220.845 19.5265C220.438 19.3655 219.859 19.2007 219.108 19.032C218.165 18.8173 217.421 18.5643 216.877 18.273C216.333 17.9817 215.942 17.6252 215.704 17.2035C215.474 16.7742 215.359 16.2605 215.359 15.6625V15.559C215.359 14.547 215.712 13.7803 216.417 13.259C217.122 12.7377 218.18 12.477 219.591 12.477C220.48 12.477 221.255 12.5728 221.914 12.7645C222.573 12.9562 223.118 13.1747 223.547 13.42L223.754 15.2945C223.24 15.0185 222.654 14.7885 221.995 14.6045C221.343 14.4128 220.618 14.317 219.821 14.317C219.277 14.317 218.84 14.3707 218.51 14.478C218.18 14.5777 217.943 14.7233 217.797 14.915C217.651 15.099 217.579 15.3213 217.579 15.582V15.6625C217.579 15.9462 217.655 16.1953 217.809 16.41C217.962 16.617 218.234 16.8048 218.625 16.9735C219.024 17.1345 219.576 17.2917 220.281 17.445C221.232 17.6443 221.991 17.8782 222.558 18.1465C223.125 18.4148 223.536 18.7598 223.789 19.1815C224.042 19.5955 224.168 20.1322 224.168 20.7915V20.964C224.168 22.0603 223.792 22.8845 223.041 23.4365C222.29 23.9885 221.163 24.2645 219.66 24.2645Z" fill="#C91212"/>
<path fill-rule="evenodd" clip-rule="evenodd" d="M142.005 69.0757C141.005 75.7423 139.505 90.5757 141.505 96.5757C143.505 102.576 147.338 103.076 149.005 102.576C151.005 101.242 155.205 99.5757 156.005 103.576C156.805 107.576 153.005 109.909 151.005 110.576C147.338 111.242 139.105 110.576 135.505 102.576C134.505 105.576 130.205 111.476 121.005 111.076C109.505 110.576 108.005 98.0757 108.005 94.5757C108.005 94.4306 108.004 94.2623 108.003 94.0723C107.98 89.6767 107.898 73.6197 117.005 63.0757C126.505 52.0757 133.005 51.5757 138.005 54.5757C143.005 57.5757 146.005 61.5757 146.505 64.5757C147.005 67.5757 143.005 69.0757 142.005 69.0757ZM136.505 63.5757C135.839 64.0757 134.405 66.5757 134.005 72.5757C133.505 80.0757 132.005 96.5757 128.005 100.076C124.005 103.576 119.505 103.576 117.505 100.076C115.505 96.5757 115.241 88.1713 116.127 83.0269C117.504 75.0269 121.506 68.5757 124.006 66.0757L124.006 66.075C126.507 63.5748 131.505 58.5761 136.505 63.5757Z" fill="#C91212"/>
</svg>
